<?xml version="1.0" encoding="UTF-8"?>
<svg xmlns="http://www.w3.org/2000/svg" viewBox="0 0 512 512" width="512" height="512">
  <defs>
    <linearGradient id="g" x1="0" x2="1" y1="0" y2="1">
      <stop offset="0" stop-color="#6b2d8f"/>
      <stop offset="1" stop-color="#3d115e"/>
    </linearGradient>
    <radialGradient id="glow" cx="50%" cy="35%" r="60%">
      <stop offset="0%" stop-color="#ffffff" stop-opacity="0.12"/>
      <stop offset="60%" stop-color="#000000" stop-opacity="0"/>
    </radialGradient>
  </defs>

  <rect width="100%" height="100%" rx="64" fill="url(#g)"/>

  <g transform="translate(256,256)">
    <circle r="200" fill="#e6bf4c" opacity="0.06"/>
    <circle r="180" fill="none" stroke="#e6bf4c" stroke-width="18" stroke-linecap="round" stroke-linejoin="round"/>
  </g>

  <g fill="#e6bf4c" transform="translate(256,256)">
    <path d="M-120,-20 C-150,-60 -160,-120 -120,-160 C-100,-140 -80,-110 -60,-90 C-80,-70 -100,-40 -120,-20 Z" transform="translate(-80,0)"/>
    <path d="M120,-20 C150,-60 160,-120 120,-160 C100,-140 80,-110 60,-90 C80,-70 100,-40 120,-20 Z" transform="translate(80,0)"/>
  </g>

  <g transform="translate(256,256)">
    <path d="M0,-120 L95,-70 L80,60 C80,110 40,140 0,150 C-40,140 -80,110 -80,60 L-95,-70 Z"
          fill="#8a3fb5" stroke="#5a1f7a" stroke-width="6"/>
    <path d="M0,-80 L48,-44 L40,30 C40,70 20,90 0,96 C-20,90 -40,70 -40,30 L-48,-44 Z"
          fill="#d9b84a" opacity="0.18"/>
  </g>

  <g transform="translate(256,256)" fill="#fff" stroke="#e6bf4c" stroke-width="6" stroke-linejoin="round">
    <rect x="-70" y="-40" width="18" height="120" rx="6" fill="#fff"/>
    <rect x="-6" y="-40" width="18" height="120" rx="6" fill="#fff"/>
    <rect x="-70" y="10" width="74" height="16" rx="6" fill="#fff"/>
    <path d="M40,-40 L40,40 C40,80 10,100 -18,100 C-46,100 -76,80 -76,40 L-76,-40 L-60,-40 L-60,40 C-60,60 -40,76 -18,76 C4,76 28,60 28,40 L28,-40 Z"
          fill="#fff" transform="translate(60,0) scale(0.6)"/>
  </g>

  <rect width="100%" height="100%" rx="64" fill="url(#glow)"/>
</svg>
